<?xml version="1.0" encoding="utf-8"?>
<svg version="1.1" xmlns="http://www.w3.org/2000/svg" x="0px" y="0px" viewBox="0 0 58 58" xml:space="preserve">
	<g fill="#a46f3e">
		<path d="M 52.39,39.47 C 49.28,38.21 47.78,34.68 49.03,31.57 49.63,30.09 50.75,28.98 52.10,28.35 49.80,26.97 48.77,24.10 49.80,21.53 50.03,20.96 50.36,20.47 50.74,20.02 50.14,19.94 49.55,19.79 48.96,19.55 45.08,17.99 43.20,13.57 44.77,9.69 45.12,8.82 45.62,8.06 46.21,7.40 44.76,6.25 43.18,5.22 41.46,4.34 27.85,-2.55 11.24,2.88 4.34,16.50 -2.55,30.11 2.88,46.74 16.49,53.65 c 13.60,6.90 30.22,1.46 37.11,-12.15 0.27,-0.53 0.48,-1.07 0.72,-1.62 -0.64,-0.03 -1.29,-0.14 -1.93,-0.40 z"/>
		<path d="M 28.94,58 C 24.45,58 20.00,56.94 15.88,54.85 8.98,51.35 3.85,45.37 1.45,38.01 -0.95,30.65 -0.35,22.80 3.14,15.89 6.64,8.99 12.61,3.86 19.96,1.45 c 7.35,-2.40 15.20,-1.80 22.10,1.69 1.76,0.89 3.44,1.97 4.98,3.20 l 1.12,0.90 -0.97,1.06 c -0.51,0.56 -0.91,1.19 -1.18,1.87 -1.28,3.18 0.26,6.82 3.45,8.11 0.45,0.18 0.92,0.30 1.46,0.38 l 2.42,0.34 -1.58,1.86 c -0.32,0.38 -0.56,0.75 -0.71,1.13 -0.77,1.92 -0.04,4.09 1.74,5.16 l 2.17,1.30 -2.29,1.06 c -1.09,0.51 -1.94,1.39 -2.38,2.49 -0.47,1.16 -0.45,2.45 0.03,3.61 0.49,1.15 1.40,2.05 2.57,2.52 v 0 c 0.43,0.17 0.92,0.27 1.50,0.31 l 1.92,0.10 -0.89,2.10 c -0.19,0.45 -0.38,0.91 -0.61,1.36 -3.49,6.90 -9.47,12.03 -16.82,14.44 C 35.01,57.51 31.97,58 28.94,58 Z M 29.00,2.69 c -2.74,0 -5.50,0.43 -8.19,1.31 C 14.13,6.19 8.71,10.85 5.54,17.11 2.37,23.37 1.82,30.50 4.00,37.17 c 2.18,6.67 6.82,12.09 13.08,15.27 6.25,3.17 13.37,3.72 20.04,1.53 6.66,-2.18 12.07,-6.82 15.25,-13.08 -0.17,-0.05 -0.34,-0.11 -0.50,-0.18 -1.83,-0.74 -3.27,-2.15 -4.04,-3.97 -0.77,-1.82 -0.79,-3.83 -0.05,-5.67 0.44,-1.10 1.15,-2.08 2.05,-2.84 -1.73,-1.91 -2.28,-4.68 -1.27,-7.19 0.02,-0.05 0.04,-0.10 0.06,-0.15 -0.05,-0.02 -0.10,-0.04 -0.15,-0.06 C 43.89,18.97 41.68,13.75 43.51,9.19 43.73,8.65 44.00,8.14 44.31,7.66 43.21,6.87 42.05,6.16 40.84,5.55 37.11,3.65 33.07,2.69 29.00,2.69 Z"/>
	</g>
	<circle fill="#6a3311" r="5" cx="27" cy="17"/>
	<circle fill="#4c312c" r="5" cx="18" cy="34"/>
	<circle fill="#8c572c" r="5" cx="36" cy="38"/>
	<g fill="#8c572c">
		<path d="m 35.75,57.21 c -0.20,0 -0.41,-0.04 -0.60,-0.14 -0.66,-0.33 -0.92,-1.14 -0.59,-1.81  0.57,-1.13 -0.83,-3.44 -3.58,-4.84 -0.66,-0.33 -0.92,-1.14 -0.59,-1.81  0.33,-0.66  1.14,-0.93  1.81,-0.59 4.04, 2.05 6.13, 5.77 4.77, 8.46 -0.23,0.46 -0.70,0.73 -1.20,0.73 z"/>
		<path d="m 11.84,23.92 c -0.20,0 -0.41,-0.04 -0.60,-0.14 -1.34,-0.68 -2.27,-1.84 -2.69,-3.18 -0.37, 0.20 -0.76, 0.37 -1.17, 0.51 -1.71, 0.55 -3.53, 0.41 -5.14,-0.39 -0.66,-0.33 -0.92,-1.14 -0.59,-1.81 0.33,-0.66 1.14,-0.93 1.81,-0.59  0.96,0.48  2.05,0.57  3.08,0.23  1.02,-0.33  1.85,-1.05  2.34,-2.01 0.33,-0.66 1.14,-0.93 1.81,-0.59 0.66,0.33 0.92,1.14 0.59,1.81 -0.67,1.32 -0.14,2.95 1.18,3.62 0.66,0.33 0.92,1.14 0.59,1.81 -0.23,0.46 -0.71,0.73 -1.20,0.73 z"/>
		<path d="m 12.85,51.15 c -0.96,0 -1.99,-0.26 -3.05,-0.89 -0.63,-0.38 -0.84,-1.21 -0.46,-1.84  0.38,-0.63  1.20,-0.84  1.84,-0.46  2.97, 1.78  5.31,-1.79  5.41,-1.94  2.21,-4.16  7.12,-3.62  7.33,-3.58 0.73, 0.09 1.26, 0.76 1.17, 1.50 -0.09,0.73 -0.77,1.26 -1.49,1.17 -0.15,-0.02 -3.30,-0.33 -4.69, 2.27 -1.02,1.59 -3.27,3.79 -6.06,3.79 z"/>
	</g>
	<path fill="#4c312c" d="m 36.61,10.79 c -0.20,0 -0.41,-0.04 -0.60,-0.14 C 32.69,8.96 31.36,4.90 33.04,1.58 c 0.33,-0.66 1.14,-0.93 1.81,-0.59 0.66,0.33 0.92,1.14 0.59,1.81 -1.00,1.98 -0.21,4.42 1.77,5.43 0.66,0.33 0.92,1.14 0.59,1.81 -0.23,0.46 -0.71,0.73 -1.20,0.73 z"/>
</svg>
