<?xml version="1.0" encoding="utf-8"?>
<svg version="1.1" xmlns="http://www.w3.org/2000/svg" x="0px" y="0px" viewBox="0 0 58 58" xml:space="preserve">
	<circle fill="#a46f3e" r="29" cx="29" cy="29"/>
	<circle fill="#6a3311" r="5" cx="27" cy="17"/>
	<circle fill="#4c312c" r="5" cx="18" cy="34"/>
	<circle fill="#8c572c" r="5" cx="36" cy="38"/>
	<g fill="#8c572c">
		<path d="m 35.75,57.21 c -0.20,0 -0.41,-0.04 -0.60,-0.14 -0.66,-0.33 -0.92,-1.14 -0.59,-1.81  0.57,-1.13 -0.83,-3.44 -3.58,-4.84 -0.66,-0.33 -0.92,-1.14 -0.59,-1.81  0.33,-0.66  1.14,-0.93  1.81,-0.59 4.04, 2.05 6.13, 5.77 4.77, 8.46 -0.23,0.46 -0.70,0.73 -1.20,0.73 z"/>
		<path d="m 11.84,23.92 c -0.20,0 -0.41,-0.04 -0.60,-0.14 -1.34,-0.68 -2.27,-1.84 -2.69,-3.18 -0.37, 0.20 -0.76, 0.37 -1.17, 0.51 -1.71, 0.55 -3.53, 0.41 -5.14,-0.39 -0.66,-0.33 -0.92,-1.14 -0.59,-1.81 0.33,-0.66 1.14,-0.93 1.81,-0.59  0.96,0.48  2.05,0.57  3.08,0.23  1.02,-0.33  1.85,-1.05  2.34,-2.01 0.33,-0.66 1.14,-0.93 1.81,-0.59 0.66,0.33 0.92,1.14 0.59,1.81 -0.67,1.32 -0.14,2.95 1.18,3.62 0.66,0.33 0.92,1.14 0.59,1.81 -0.23,0.46 -0.71,0.73 -1.20,0.73 z"/>
		<path d="m 12.85,51.15 c -0.96,0 -1.99,-0.26 -3.05,-0.89 -0.63,-0.38 -0.84,-1.21 -0.46,-1.84  0.38,-0.63  1.20,-0.84  1.84,-0.46  2.97, 1.78  5.31,-1.79  5.41,-1.94  2.21,-4.16  7.12,-3.62  7.33,-3.58 0.73, 0.09 1.26, 0.76 1.17, 1.50 -0.09,0.73 -0.77,1.26 -1.49,1.17 -0.15,-0.02 -3.30,-0.33 -4.69, 2.27 -1.02,1.59 -3.27,3.79 -6.06,3.79 z"/>
	</g>
	<path fill="#4c312c" d="m 36.61,10.79 c -0.20,0 -0.41,-0.04 -0.60,-0.14 C 32.69,8.96 31.36,4.90 33.04,1.58 c 0.33,-0.66 1.14,-0.93 1.81,-0.59 0.66,0.33 0.92,1.14 0.59,1.81 -1.00,1.98 -0.21,4.42 1.77,5.43 0.66,0.33 0.92,1.14 0.59,1.81 -0.23,0.46 -0.71,0.73 -1.20,0.73 z"/>
</svg>
