<?xml version="1.0" encoding="utf-8"?>
<svg version="1.1" xmlns="http://www.w3.org/2000/svg" x="0px" y="0px" viewBox="0 0 512 512" xml:space="preserve">
<g transform="matrix(1.3061224,0,0,1.3061224,-78.367344,-78.367325)">
	<path fill="#ff7855" d="m60 256c0 108.246094 87.753906 196 196 196l17.042969-196-17.042969-196c-108.246094 0-196 87.753906-196 196zm0 0"/>
	<path fill="#ff562b" d="m256 60v392c108.246094 0 196-87.753906 196-196s-87.753906-196-196-196zm0 0"/>
	<path fill="#ffffff" d="m111.128906 256c0 30.769531 9.601563 59.292969 25.960938 82.753906l118.910156-118.910156 17.042969-54.355469-17.042969-54.359375c-80.007812 0-144.871094 64.863282-144.871094 144.871094zm0 0"/>
	<path fill="#ffeac3" d="m256 111.128906v108.714844l82.753906-82.753906c-23.460937-16.359375-51.984375-25.960938-82.753906-25.960938zm0 0"/>
	<path fill="#ffffff" d="m173.246094 374.910156c23.460937 16.359375 51.984375 25.960938 82.753906 25.960938l17.042969-54.359375-17.042969-54.355469zm0 0"/>
	<path fill="#ffeac3" d="m374.910156 173.246094-118.910156 118.910156v108.714844c80.007812 0 144.871094-64.863282 144.871094-144.871094 0-30.769531-9.601563-59.292969-25.960938-82.753906zm0 0"/>
</g>
</svg>
