<?xml version="1.0" encoding="utf-8"?>
<svg version="1.1" xmlns="http://www.w3.org/2000/svg" x="0px" y="0px" viewBox="0 0 58 58" xml:space="preserve">
<g>
	<path fill="#fbd490" d="M46,23.5H12v-12c0-1.1,0.9-2,2-2h30c1.1,0,2,0.9,2,2V23.5z"/>
	<g fill="#f9f2e8">
		<path d="M44,9.5h-4.475c0.133,2.781,2.411,5,5.225,5c0.433,0,0.847-0.067,1.25-0.166V11.5 C46,10.4,45.1,9.5,44,9.5z"/>
		<path d="M13.25,14.5c2.814,0,5.092-2.219,5.225-5H14c-1.1,0-2,0.9-2,2v2.834 C12.403,14.433,12.817,14.5,13.25,14.5z"/>
		<path d="M28.975,9.5h-10.45c0.133,2.781,2.411,5,5.225,5S28.842,12.281,28.975,9.5z"/>
		<path d="M39.475,9.5h-10.45c0.133,2.781,2.411,5,5.225,5S39.342,12.281,39.475,9.5z"/>
	</g>
	<g fill="#ed7161">
		<path d="M14,23.5h4.475c-0.133-2.781-2.411-5-5.225-5c-0.433,0-0.847,0.067-1.25,0.166V21.5 C12,22.6,12.9,23.5,14,23.5z"/>
		<path d="M44.75,18.5c-2.814,0-5.092,2.219-5.225,5H44c1.1,0,2-0.9,2-2v-2.834 C45.597,18.567,45.183,18.5,44.75,18.5z"/>
		<path d="M29.025,23.5h10.45c-0.133-2.781-2.411-5-5.225-5S29.158,20.719,29.025,23.5z"/>
		<path d="M18.525,23.5h10.45c-0.133-2.781-2.411-5-5.225-5S18.658,20.719,18.525,23.5z"/>
	</g>
	<g fill="#f9da49">
		<path d="M17,7.5c-0.256,0-0.512-0.098-0.707-0.293c-0.391-0.391-0.391-1.023,0-1.414l3-3 c0.391-0.391,1.023-0.391,1.414,0s0.391,1.023,0,1.414l-3,3C17.512,7.402,17.256,7.5,17,7.5z"/>
		<path d="M24,7.5c-0.256,0-0.512-0.098-0.707-0.293c-0.391-0.391-0.391-1.023,0-1.414l3-3 c0.391-0.391,1.023-0.391,1.414,0s0.391,1.023,0,1.414l-3,3C24.512,7.402,24.256,7.5,24,7.5z"/>
		<path d="M31,7.5c-0.256,0-0.512-0.098-0.707-0.293c-0.391-0.391-0.391-1.023,0-1.414l3-3 c0.391-0.391,1.023-0.391,1.414,0s0.391,1.023,0,1.414l-3,3C31.512,7.402,31.256,7.5,31,7.5z"/>
		<path d="M38,7.5c-0.256,0-0.512-0.098-0.707-0.293c-0.391-0.391-0.391-1.023,0-1.414l3-3 c0.391-0.391,1.023-0.391,1.414,0s0.391,1.023,0,1.414l-3,3C38.512,7.402,38.256,7.5,38,7.5z"/>
		<path d="M41,7.5c-0.256,0-0.512-0.098-0.707-0.293l-3-3c-0.391-0.391-0.391-1.023,0-1.414 s1.023-0.391,1.414,0l3,3c0.391,0.391,0.391,1.023,0,1.414C41.512,7.402,41.256,7.5,41,7.5z"/>
		<path d="M34,7.5c-0.256,0-0.512-0.098-0.707-0.293l-3-3c-0.391-0.391-0.391-1.023,0-1.414 s1.023-0.391,1.414,0l3,3c0.391,0.391,0.391,1.023,0,1.414C34.512,7.402,34.256,7.5,34,7.5z"/>
		<path d="M27,7.5c-0.256,0-0.512-0.098-0.707-0.293l-3-3c-0.391-0.391-0.391-1.023,0-1.414 s1.023-0.391,1.414,0l3,3c0.391,0.391,0.391,1.023,0,1.414C27.512,7.402,27.256,7.5,27,7.5z"/>
		<path d="M20,7.5c-0.256,0-0.512-0.098-0.707-0.293l-3-3c-0.391-0.391-0.391-1.023,0-1.414 s1.023-0.391,1.414,0l3,3c0.391,0.391,0.391,1.023,0,1.414C20.512,7.402,20.256,7.5,20,7.5z"/>
	</g>
	<path fill="#f9ea80" d="M50,37.5H8v-12c0-1.1,0.9-2,2-2h38c1.1,0,2,0.9,2,2V37.5z"/>
	<g fill="#eacb49">
		<path d="M11,34.5c-0.553,0-1-0.447-1-1v-6c0-0.553,0.447-1,1-1s1,0.447,1,1v6C12,34.053,11.553,34.5,11,34.5 z"/>
		<path d="M15,34.5c-0.553,0-1-0.447-1-1v-6c0-0.553,0.447-1,1-1s1,0.447,1,1v6C16,34.053,15.553,34.5,15,34.5 z"/>
		<path d="M19,34.5c-0.553,0-1-0.447-1-1v-6c0-0.553,0.447-1,1-1s1,0.447,1,1v6C20,34.053,19.553,34.5,19,34.5 z"/>
		<path d="M23,34.5c-0.553,0-1-0.447-1-1v-6c0-0.553,0.447-1,1-1s1,0.447,1,1v6C24,34.053,23.553,34.5,23,34.5 z"/>
		<path d="M27,34.5c-0.553,0-1-0.447-1-1v-6c0-0.553,0.447-1,1-1s1,0.447,1,1v6C28,34.053,27.553,34.5,27,34.5 z"/>
		<path d="M31,34.5c-0.553,0-1-0.447-1-1v-6c0-0.553,0.447-1,1-1s1,0.447,1,1v6C32,34.053,31.553,34.5,31,34.5 z"/>
		<path d="M35,34.5c-0.553,0-1-0.447-1-1v-6c0-0.553,0.447-1,1-1s1,0.447,1,1v6C36,34.053,35.553,34.5,35,34.5 z"/>
		<path d="M39,34.5c-0.553,0-1-0.447-1-1v-6c0-0.553,0.447-1,1-1s1,0.447,1,1v6C40,34.053,39.553,34.5,39,34.5 z"/>
		<path d="M43,34.5c-0.553,0-1-0.447-1-1v-6c0-0.553,0.447-1,1-1s1,0.447,1,1v6C44,34.053,43.553,34.5,43,34.5 z"/>
		<path d="M47,34.5c-0.553,0-1-0.447-1-1v-6c0-0.553,0.447-1,1-1s1,0.447,1,1v6C48,34.053,47.553,34.5,47,34.5 z"/>
	</g>
	<g fill="#a46f3e">
		<path d="M54,51.5H4v-12c0-1.1,0.9-2,2-2h46c1.1,0,2,0.9,2,2V51.5z"/>
		<path d="M54,52.5H4c-0.553,0-1-0.447-1-1v-12c0-1.654,1.346-3,3-3h46c1.654,0,3,1.346,3,3v12 C55,52.053,54.553,52.5,54,52.5z M5,50.5h48v-11c0-0.552-0.448-1-1-1H6c-0.552,0-1,0.448-1,1V50.5z"/>
	</g>
	<g fill="#fbd490">
		<path d="M10.25,48.5C6.252,48.5,3,45.248,3,41.25c0-0.553,0.447-1,1-1s1,0.447,1,1 c0,2.895,2.355,5.25,5.25,5.25s5.25-2.355,5.25-5.25c0-0.553,0.447-1,1-1s1,0.447,1,1C17.5,45.248,14.248,48.5,10.25,48.5z"/>
		<path d="M22.75,48.5c-3.998,0-7.25-3.252-7.25-7.25c0-0.553,0.447-1,1-1s1,0.447,1,1 c0,2.895,2.355,5.25,5.25,5.25S28,44.145,28,41.25c0-0.553,0.447-1,1-1s1,0.447,1,1C30,45.248,26.748,48.5,22.75,48.5z"/>
		<path d="M35.25,48.5c-3.998,0-7.25-3.252-7.25-7.25c0-0.553,0.447-1,1-1s1,0.447,1,1 c0,2.895,2.355,5.25,5.25,5.25s5.25-2.355,5.25-5.25c0-0.553,0.447-1,1-1s1,0.447,1,1C42.5,45.248,39.248,48.5,35.25,48.5z"/>
		<path d="M47.75,48.5c-3.998,0-7.25-3.252-7.25-7.25c0-0.553,0.447-1,1-1s1,0.447,1,1 c0,2.895,2.355,5.25,5.25,5.25S53,44.145,53,41.25c0-0.553,0.447-1,1-1s1,0.447,1,1C55,45.248,51.748,48.5,47.75,48.5z"/>
	</g>
	<g fill="#e6e6e6">
		<path d="M57,52.5H1c-0.553,0-1-0.447-1-1s0.447-1,1-1h56c0.553,0,1,0.447,1,1S57.553,52.5,57,52.5z"/>
		<path d="M53,55.5H5c-0.553,0-1-0.447-1-1s0.447-1,1-1h48c0.553,0,1,0.447,1,1S53.553,55.5,53,55.5z"/>
	</g>
</g>
</svg>
