<?xml version="1.0" encoding="utf-8"?>
<svg version="1.1" xmlns="http://www.w3.org/2000/svg" x="0px" y="0px" viewBox="0 0 58 58" xml:space="preserve">
<g>
	<path fill="#fbd490" d="M57,24.004h-0.077c0-11.046-12.76-20-28.5-20S0,12.958,0,24.004c0,0,0.016,9.436,0.016,9.438
		c0,11.046,12.667,19.563,28.408,19.563s28.585-8.923,28.585-19.969C57.008,33.034,57,24.004,57,24.004z M29,29.004
		c-4.524,0-8.342-1.804-9.577-4.277c2.672-1.202,5.98-1.923,9.577-1.923s6.905,0.721,9.577,1.923
		C37.342,27.2,33.524,29.004,29,29.004z"/>
	<path fill="#d85c81" d="M0,24.004c0,0,0.006,3.827,0.011,6.608c0.057,0.774,0.701,1.392,1.489,1.392
		c0.77,0,1.402-0.59,1.484-1.339C2.989,30.671,2.995,30.677,3,30.682v4.821c0,0.825,0.675,1.5,1.5,1.5s1.5-0.675,1.5-1.5v4
		c0,0.825,0.675,1.5,1.5,1.5s1.5-0.675,1.5-1.5v-2c0,0.825,0.675,1.5,1.5,1.5s1.5-0.675,1.5-1.5v5c0,0.825,0.675,1.5,1.5,1.5
		s1.5-0.675,1.5-1.5v-2c0,0.825,0.675,1.5,1.5,1.5s1.5-0.675,1.5-1.5v3.5c0,1.1,0.9,2,2,2s2-0.9,2-2v-1.5c0,0.825,0.675,1.5,1.5,1.5
		s1.5-0.675,1.5-1.5v3.5c0,1.1,0.9,2,2,2s2-0.9,2-2v-4c0,1.1,0.9,2,2,2s2-0.9,2-2v1.5c0,0.825,0.675,1.5,1.5,1.5s1.5-0.675,1.5-1.5
		v-3.5c0,1.1,0.9,2,2,2s2-0.9,2-2v3.5c0,0.825,0.675,1.5,1.5,1.5s1.5-0.675,1.5-1.5v-5c0,0.825,0.675,1.5,1.5,1.5s1.5-0.675,1.5-1.5
		v1c0,0.825,0.675,1.5,1.5,1.5s1.5-0.675,1.5-1.5v-4c0,0.825,0.675,1.5,1.5,1.5s1.5-0.675,1.5-1.5v-3c0,0.825,0.676,1.532,1.5,1.5
		c2.927-0.115,3.464-3.887,3.503-6.821c0-0.318-0.001-0.625-0.001-0.916c-0.018-1.03-0.079-1.869-0.079-2.263
		c0-11.046-12.76-20-28.5-20S0,12.958,0,24.004z M29,22.804c3.597,0,6.905,0.721,9.577,1.923C37.342,27.2,33.524,29.004,29,29.004
		s-8.342-1.804-9.577-4.277C22.095,23.525,25.403,22.804,29,22.804z"/>
	<path fill="#fbd490" d="M29.088,17.004c-5.523,0-10,2.686-10,6c0,0.599,0.161,1.173,0.435,1.718
		c2.67-1.199,5.973-1.918,9.565-1.918s6.894,0.719,9.565,1.918c0.274-0.545,0.435-1.119,0.435-1.718
		C39.088,19.69,34.611,17.004,29.088,17.004z"/>
	<g fill="#a4e869">
		<path d="M12.476,28.588c-0.441,0-0.844-0.293-0.965-0.739c-0.144-0.532,0.171-1.082,0.704-1.226l4.317-1.168
			c0.531-0.15,1.083,0.17,1.227,0.704c0.144,0.532-0.171,1.082-0.704,1.226l-4.317,1.168C12.65,28.577,12.562,28.588,12.476,28.588z"/>
		<path d="M47.635,28.904c-0.552,0-1-0.447-1-1v-4c0-0.553,0.448-1,1-1s1,0.447,1,1v4
			C48.635,28.457,48.187,28.904,47.635,28.904z"/>
		<path d="M35.927,33.262c-0.02,0-0.04-0.001-0.06-0.002c-0.551-0.032-0.972-0.506-0.939-1.057l0.083-1.411
			c0.032-0.552,0.508-0.963,1.057-0.939c0.551,0.032,0.972,0.506,0.939,1.057l-0.083,1.411
			C36.893,32.852,36.453,33.262,35.927,33.262z"/>
		<path d="M43.831,13.544c-0.532,0-0.975-0.42-0.998-0.956l-0.062-1.413c-0.024-0.552,0.404-1.019,0.956-1.043
			c0.546-0.023,1.019,0.404,1.042,0.955l0.062,1.413c0.024,0.552-0.404,1.019-0.956,1.043C43.861,13.544,43.846,13.544,43.831,13.544
			z"/>
	</g>
	<g fill="#48a0dc">
		<path d="M28.301,36.075c-0.104,0-0.211-0.017-0.316-0.052l-3-1c-0.524-0.174-0.807-0.74-0.632-1.265
			c0.175-0.523,0.74-0.809,1.265-0.632l3,1c0.524,0.174,0.807,0.74,0.632,1.265C29.11,35.81,28.72,36.075,28.301,36.075z"/>
		<path d="M24.042,12.514c-0.274,0-0.547-0.112-0.744-0.332l-2.114-2.353c-0.369-0.41-0.335-1.043,0.075-1.412
			c0.411-0.367,1.044-0.334,1.412,0.076l2.114,2.353c0.369,0.41,0.335,1.043-0.075,1.412C24.519,12.429,24.28,12.514,24.042,12.514z"/>
		<path d="M49.868,18.504c-0.104,0-0.211-0.017-0.316-0.052l-3-1c-0.524-0.174-0.807-0.74-0.632-1.265
			c0.174-0.523,0.74-0.809,1.265-0.632l3,1c0.524,0.174,0.807,0.74,0.632,1.265C50.677,18.239,50.287,18.504,49.868,18.504z"/>
		<path d="M43.801,35.575c-0.256,0-0.512-0.098-0.707-0.293l-1-1c-0.391-0.391-0.391-1.023,0-1.414
			s1.023-0.391,1.414,0l1,1c0.391,0.391,0.391,1.023,0,1.414C44.313,35.477,44.057,35.575,43.801,35.575z"/>
		<path d="M15.635,36.075c-0.256,0-0.512-0.098-0.707-0.293l-1-1c-0.391-0.391-0.391-1.023,0-1.414
			s1.023-0.391,1.414,0l1,1c0.391,0.391,0.391,1.023,0,1.414C16.146,35.977,15.891,36.075,15.635,36.075z"/>
		<path d="M36.968,13.337c-0.256,0-0.512-0.098-0.707-0.293l-1-1c-0.391-0.391-0.391-1.023,0-1.414
			s1.023-0.391,1.414,0l1,1c0.391,0.391,0.391,1.023,0,1.414C37.479,13.239,37.224,13.337,36.968,13.337z"/>
		<path d="M8.135,24.304c-0.256,0-0.512-0.098-0.707-0.293l-1-1c-0.391-0.391-0.391-1.023,0-1.414
			s1.023-0.391,1.414,0l1,1c0.391,0.391,0.391,1.023,0,1.414C8.646,24.206,8.391,24.304,8.135,24.304z"/>
		<path d="M12.947,18.759c-0.448,0-0.855-0.303-0.969-0.758l-1-4c-0.134-0.535,0.192-1.078,0.728-1.212
			c0.537-0.135,1.079,0.19,1.213,0.728l1,4c0.134,0.535-0.192,1.078-0.728,1.212C13.109,18.749,13.028,18.759,12.947,18.759z"/>
	</g>
</g>
</svg>
