<?xml version="1.0" encoding="utf-8"?>
<svg version="1.1" xmlns="http://www.w3.org/2000/svg" x="0px" y="0px" viewBox="0 0 55 55" xml:space="preserve">
<g>
	<polygon fill="#436b1c" points="6.976,49.565 0,46.565 0,0.565 6.976,0.565"/>
	<path fill="#88c057" d="M24.529,46.934c2.147-2.962,5.649-9.998,7.765-12.928c1.606-2.225,3.638-3.379,5.706-3.438V0.565
		H7.007v49h15.578h0.807C23.459,48.778,23.841,47.883,24.529,46.934z"/>
	<path fill="#faf5e5" d="M46.42,52.94H27.64c-4.889,0-5.9-2.619-3.577-5.823c2.22-3.063,5.842-10.338,8.029-13.369
		c3.326-4.608,8.415-4.776,12.044-0.297c2.097,2.589,5.748,9.375,7.916,12.059C55.358,49.599,52.827,52.94,46.42,52.94z"/>
	<g fill="#efe7e0">
		<circle cx="46" cy="46" r="1"/>
		<circle cx="50" cy="46" r="1"/>
		<circle cx="44" cy="43" r="1"/>
		<circle cx="48" cy="43" r="1"/>
		<circle cx="42" cy="40" r="1"/>
		<circle cx="46" cy="40" r="1"/>
		<circle cx="40" cy="37" r="1"/>
		<circle cx="44" cy="37" r="1"/>
		<circle cx="38" cy="34" r="1"/>
		<circle cx="42" cy="34" r="1"/>
		<circle cx="48" cy="49" r="1"/>
		<circle cx="52" cy="49" r="1"/>
		<circle cx="26" cy="46" r="1"/>
		<circle cx="28" cy="43" r="1"/>
		<circle cx="30" cy="40" r="1"/>
		<circle cx="32" cy="37" r="1"/>
		<circle cx="34" cy="34" r="1"/>
		<circle cx="24" cy="49" r="1"/>
		<circle cx="44" cy="49" r="1"/>
		<circle cx="42" cy="46" r="1"/>
		<circle cx="40" cy="43" r="1"/>
		<circle cx="38" cy="40" r="1"/>
		<circle cx="36" cy="37" r="1"/>
		<circle cx="38" cy="46" r="1"/>
		<circle cx="36" cy="43" r="1"/>
		<circle cx="34" cy="40" r="1"/>
		<circle cx="40" cy="49" r="1"/>
		<circle cx="36" cy="49" r="1"/>
		<circle cx="34" cy="46" r="1"/>
		<circle cx="32" cy="43" r="1"/>
		<circle cx="30" cy="46" r="1"/>
		<circle cx="32" cy="49" r="1"/>
		<circle cx="28" cy="49" r="1"/>
	</g>
</g>
</svg>
