<?xml version="1.0" encoding="utf-8"?>
<svg version="1.1" xmlns="http://www.w3.org/2000/svg" x="0px" y="0px" viewBox="0 0 55 55" xml:space="preserve">
<g>
	<g fill="#fbd490">
		<path d="M28.742,54h-3c-1.1,0-2-0.9-2-2V38h7v14C30.742,53.1,29.842,54,28.742,54z"/>
		<path d="M28.742,55h-3c-1.654,0-3-1.346-3-3V37h9v15C31.742,53.654,30.396,55,28.742,55z M24.742,39v13
			c0,0.552,0.449,1,1,1h3c0.551,0,1-0.448,1-1V39H24.742z"/>
	</g>
	<path fill="#eeaf4b" d="M30.716,52.315c-0.11,0-0.222-0.018-0.332-0.057c-0.249-0.087-0.59-0.167-0.967-0.257
		c-1.44-0.346-3.232-0.774-3.833-2.061c-0.196-0.42-0.339-1.104,0.095-1.975c0.104-0.211,0.332-0.728,0.177-0.968
		c-0.249-0.386-1.373-0.585-2.079-0.563c-0.57,0.064-1.015-0.411-1.035-0.964c-0.02-0.552,0.412-1.015,0.964-1.034
		c0.474-0.023,2.864-0.024,3.832,1.478c0.359,0.558,0.639,1.521-0.068,2.941c-0.083,0.167-0.075,0.234-0.074,0.235
		c0.08,0.263,0.917,0.588,2.487,0.964c0.455,0.109,0.865,0.21,1.165,0.315c0.521,0.183,0.795,0.754,0.612,1.274
		C31.515,52.059,31.129,52.315,30.716,52.315z"/>
	<path fill="#eeaf4b" d="M30.742,46c-2.308,0-4.186-1.771-4.186-3.947s1.878-3.947,4.186-3.947c0.552,0,1,0.447,1,1
		s-0.448,1-1,1c-1.206,0-2.186,0.874-2.186,1.947S29.536,44,30.742,44c0.552,0,1,0.447,1,1S31.294,46,30.742,46z"/>
	<path fill="#5b4b38" d="M36.529,38H18.471c-1.044,0-1.85-0.919-1.714-1.954l3.96-30.097C21.165,2.545,24.067,0,27.5,0h0
		c3.433,0,6.335,2.545,6.783,5.949l3.96,30.097C38.379,37.081,37.573,38,36.529,38z"/>
	<g fill="#ed7161">
		<path d="M30.716,33.841l-3.535-3.535c-0.391-0.391-0.391-1.023,0-1.414s1.023-0.391,1.414,0l2.121,2.121
			l2.122-2.121c0.391-0.391,1.023-0.391,1.414,0s0.391,1.023,0,1.414L30.716,33.841z"/>
		<path d="M25.672,11.809l-3.536-3.536c-0.391-0.391-0.391-1.023,0-1.414s1.023-0.391,1.414,0l2.122,2.122
			l2.122-2.122c0.391-0.391,1.023-0.391,1.414,0s0.391,1.023,0,1.414L25.672,11.809z"/>
		<path d="M23.827,27.617c-0.256,0-0.512-0.098-0.707-0.293c-0.391-0.391-0.391-1.023,0-1.414l3.5-3.5
			c0.391-0.391,1.023-0.391,1.414,0s0.391,1.023,0,1.414l-3.5,3.5C24.339,27.52,24.083,27.617,23.827,27.617z"/>
		<path d="M32.152,18.623c-0.075,0-0.15-0.008-0.226-0.025l-4.823-1.113c-0.538-0.124-0.874-0.661-0.75-1.199
			c0.125-0.539,0.664-0.873,1.2-0.75l4.823,1.113c0.538,0.124,0.874,0.661,0.75,1.199C33.018,18.311,32.607,18.623,32.152,18.623z"/>
	</g>
</g>
</svg>
