<?xml version="1.0" encoding="utf-8"?>
<svg version="1.1" xmlns="http://www.w3.org/2000/svg" x="0px" y="0px" viewBox="0 0 58 58" xml:space="preserve">
<g>
	<path fill="#eeaf4b" d="M57,24C57,12.954,44.24,4,28.5,4S0,12.954,0,24l0,8.996C0,32.997,0,32.999,0,33
		c0,11.046,12.76,20,28.5,20S57,44.046,57,33c0-0.001,0-0.003,0-0.004L57,24z M29,29c-5.523,0-10-2.686-10-6c0-3.314,4.477-6,10-6
		s10,2.686,10,6C39,26.314,34.523,29,29,29z"/>
	<g fill="#fbd490">
		<path d="M29,22.803c3.591,0,6.894,0.719,9.565,1.918C38.839,24.175,39,23.601,39,23.003
			c0-3.314-4.477-6-10-6s-10,2.686-10,6c0,0.599,0.161,1.173,0.435,1.718C22.106,23.521,25.409,22.803,29,22.803z"/>
		<path d="M6.229,33.012c-0.239,0-0.478-0.085-0.669-0.258c-1.391-1.255-2.621-2.666-3.656-4.193
			c-0.31-0.457-0.19-1.079,0.267-1.389c0.458-0.31,1.079-0.19,1.389,0.268c0.944,1.394,2.068,2.683,3.34,3.83
			c0.41,0.369,0.442,1.002,0.073,1.412C6.774,32.9,6.502,33.012,6.229,33.012z"/>
		<path d="M25.687,40.385c-0.022,0-0.045-0.001-0.068-0.002c-1.93-0.129-3.849-0.387-5.705-0.766
			c-0.541-0.11-0.89-0.639-0.78-1.18c0.11-0.542,0.634-0.891,1.18-0.779c1.768,0.36,3.598,0.605,5.438,0.729
			c0.551,0.037,0.968,0.514,0.931,1.064C26.649,39.979,26.209,40.385,25.687,40.385z"/>
		<path d="M34.999,39.597c-0.474,0-0.895-0.338-0.983-0.82c-0.099-0.543,0.261-1.063,0.804-1.163
			c5.004-0.916,12.057-3.192,17.243-8.836c0.375-0.407,1.007-0.432,1.413-0.06c0.406,0.374,0.434,1.006,0.06,1.413
			c-5.561,6.051-13.051,8.479-18.355,9.449C35.119,39.592,35.059,39.597,34.999,39.597z"/>
	</g>
	<path fill="#6a3311" d="M16.5,41.167c-0.21,0.012-0.417,0.011-0.625,0.009v1.991c0,1.398-1.144,2.542-2.542,2.542
		c-1.398,0-2.542-1.144-2.542-2.542V39.63c-1.86-1.186-3.352-2.962-4.179-5.038c-0.639-1.606,0.686-3.476,2.212-3.896
		c1.803-0.496,3.258,0.609,3.896,2.212c0.465,1.169,2.472,2.001,3.78,1.925c1.725-0.1,3.167,1.517,3.167,3.167
		C19.667,39.802,18.223,41.067,16.5,41.167z"/>
	<g fill="#6d5c41">
		<path d="M11.57,28.638c-0.441,0-0.844-0.293-0.965-0.739c-0.144-0.532,0.171-1.082,0.704-1.226l4.317-1.168
			c0.533-0.149,1.082,0.17,1.227,0.704c0.144,0.532-0.171,1.082-0.704,1.226l-4.317,1.168C11.745,28.627,11.657,28.638,11.57,28.638z"/>
		<path d="M27.396,36.125c-0.104,0-0.211-0.017-0.316-0.052l-3-1c-0.524-0.174-0.807-0.74-0.632-1.265
			c0.174-0.523,0.74-0.808,1.265-0.632l3,1c0.524,0.174,0.807,0.74,0.632,1.265C28.205,35.86,27.815,36.125,27.396,36.125z"/>
		<path d="M46.729,28.954c-0.553,0-1-0.447-1-1v-4c0-0.553,0.447-1,1-1s1,0.447,1,1v4
			C47.729,28.507,47.282,28.954,46.729,28.954z"/>
		<path d="M23.137,12.563c-0.274,0-0.547-0.112-0.744-0.332l-2.114-2.353c-0.369-0.41-0.335-1.043,0.075-1.412
			c0.411-0.368,1.044-0.334,1.412,0.076l2.114,2.353c0.369,0.41,0.335,1.043-0.075,1.412C23.614,12.479,23.375,12.563,23.137,12.563z"/>
		<path d="M48.963,18.554c-0.104,0-0.211-0.017-0.316-0.052l-3-1c-0.523-0.174-0.807-0.74-0.632-1.265
			c0.175-0.523,0.736-0.809,1.265-0.632l3,1c0.523,0.174,0.807,0.74,0.632,1.265C49.771,18.289,49.382,18.554,48.963,18.554z"/>
		<path d="M35.022,33.312c-0.02,0-0.04-0.001-0.06-0.002c-0.551-0.032-0.972-0.506-0.939-1.057l0.083-1.411
			c0.033-0.552,0.513-0.979,1.057-0.939c0.551,0.032,0.972,0.506,0.939,1.057l-0.083,1.411
			C35.988,32.901,35.547,33.312,35.022,33.312z"/>
		<path d="M42.896,35.625c-0.256,0-0.512-0.098-0.707-0.293l-1-1c-0.391-0.391-0.391-1.023,0-1.414
			s1.023-0.391,1.414,0l1,1c0.391,0.391,0.391,1.023,0,1.414C43.408,35.527,43.152,35.625,42.896,35.625z"/>
		<path d="M42.926,13.594c-0.532,0-0.975-0.42-0.998-0.956l-0.062-1.413c-0.024-0.552,0.404-1.019,0.956-1.043
			c0.561-0.021,1.019,0.404,1.042,0.955l0.062,1.413c0.024,0.552-0.404,1.019-0.956,1.043C42.956,13.594,42.94,13.594,42.926,13.594z"/>
		<path d="M12.042,18.809c-0.448,0-0.855-0.303-0.969-0.758l-1-4c-0.134-0.535,0.192-1.078,0.728-1.212
			c0.535-0.135,1.079,0.191,1.213,0.728l1,4c0.134,0.535-0.192,1.078-0.728,1.212C12.204,18.799,12.123,18.809,12.042,18.809z"/>
		<path d="M7.229,24.354c-0.256,0-0.512-0.098-0.707-0.293l-1-1c-0.391-0.391-0.391-1.023,0-1.414
			s1.023-0.391,1.414,0l1,1c0.391,0.391,0.391,1.023,0,1.414C7.741,24.256,7.485,24.354,7.229,24.354z"/>
		<path d="M36.062,13.387c-0.256,0-0.512-0.098-0.707-0.293l-1-1c-0.391-0.391-0.391-1.023,0-1.414
			s1.023-0.391,1.414,0l1,1c0.391,0.391,0.391,1.023,0,1.414C36.574,13.289,36.318,13.387,36.062,13.387z"/>
	</g>
</g>
</svg>
