<?xml version="1.0" encoding="utf-8"?>
<svg version="1.1" xmlns="http://www.w3.org/2000/svg" x="0px" y="0px" viewBox="0 0 58 58" xml:space="preserve">
<g>
	<path fill="#eeaf4b" d="M57.664,24.924c0-11.046-12.76-20-28.5-20s-28.5,8.954-28.5,20l0,8.996c0,0.001,0,0.003,0,0.004
		c0,11.046,12.76,20,28.5,20s28.5-8.954,28.5-20c0-0.001,0-0.003,0-0.004L57.664,24.924z M29.664,29.924c-5.523,0-10-2.686-10-6
		c0-3.314,4.477-6,10-6s10,2.686,10,6C39.664,27.237,35.187,29.924,29.664,29.924z"/>
	<path fill="#fbd490" d="M29.664,23.726c3.591,0,6.894,0.719,9.565,1.918c0.274-0.545,0.435-1.119,0.435-1.718
		c0-3.314-4.477-6-10-6s-10,2.686-10,6c0,0.599,0.161,1.173,0.435,1.718C22.769,24.445,26.072,23.726,29.664,23.726z"/>
	<path fill="#e6e6e6" d="M58.274,22.758C56.467,12.412,44.005,4.404,28.99,4.404c-14.382,0-26.291,7.348-28.839,17.06
		c-0.537,2.046,0.387,4.17,2.185,5.344c1.427,0.932,1.098,8.05,1.476,9.576c0.256,1.036,1.037,1.894,2.101,2.135
		c1.569,0.356,5.539-0.348,6.289,2.386c0.112,0.409,0.225,0.801,0.277,1.193c0.126,0.944,1.101,1.53,1.985,1.129
		c0.883-0.4,2.417-2.398,4.06-2.655c5.676-0.887,2.961,4.401,4.204,6.212c0.652,0.95,1.894,1.235,2.942,0.725
		c0.926-0.45,1.097-2.862,3.074-2.83c2.522,0.041,1.991,2.343,2.863,2.732c1.143,0.509,2.539,0.209,3.269-0.789
		c1.256-1.719,2.354-5.801,4.667-6.049c2.989-0.321,3.625,2.312,4.586,2.808c0.815,0.421,1.783-0.052,1.904-0.945
		c0.275-2.027,0.866-5.937,6.121-4.405c0.772,0.225,1.351-0.801,1.549-1.564c0.665-2.561,1.245-9.124,2.952-10.14
		C57.902,25.584,58.52,24.165,58.274,22.758z M29.664,29.924c-5.523,0-10-2.686-10-6c0-3.314,4.477-6,10-6s10,2.686,10,6
		C39.664,27.237,35.187,29.924,29.664,29.924z"/>
</g>
</svg>
