<?xml version="1.0" encoding="utf-8"?>
<svg version="1.1" xmlns="http://www.w3.org/2000/svg" x="0px" y="0px" viewBox="0 0 58 58" xml:space="preserve">
<g>
	<path fill="#fff5bb" d="M52.092,24.845c-0.199-1.096-0.315-2.204-0.471-3.306c-0.31-2.204-1.566-3.857-3.923-3.857
		c-2.545,0-3.522,1.941-3.824,4.408l-0.176-1.408c0-2.75-2.25-5-5-5s-4,2.25-4,5v-2c0-2.75-3.25-5-6-5s-6,2.25-6,5v2
		c0-2.75-1.25-5-4-5s-5,2.25-5,5l-0.178,1.421c-0.302-2.467-1.277-4.421-3.822-4.421c-2.357,0-3.612,1.653-3.923,3.857
		c-0.155,1.103-0.271,2.211-0.471,3.306L1.699,44.682h54L52.092,24.845z"/>
	<g fill="#fbd490">
		<path d="M10.7,45.682c-0.041,0-0.083-0.003-0.125-0.008c-0.548-0.068-0.937-0.568-0.868-1.116l2.992-23.941
			c0.035-3.278,2.714-5.935,6-5.935c3.037,0,5,2.355,5,6l-1.001,24.042c-0.022,0.553-0.48,1.01-1.041,0.957
			c-0.552-0.022-0.98-0.489-0.957-1.041l1-24c-0.001-1.161-0.293-3.958-3.001-3.958c-2.206,0-4,1.794-4,4l-0.008,0.124l-3,24
			C11.627,45.312,11.197,45.682,10.7,45.682z"/>
		<path d="M35.698,43.682c-0.533,0-0.976-0.421-0.998-0.958l-1-24c-0.001-2.196-2.75-4.042-5.001-4.042
			s-5,1.846-5,4l-1.001,24.042c-0.022,0.552-0.48,1.001-1.041,0.957c-0.552-0.022-0.98-0.489-0.957-1.041l1-24
			c-0.001-3.337,3.762-5.958,6.999-5.958s7,2.621,7,6l0.999,23.958c0.023,0.552-0.405,1.019-0.957,1.041
			C35.726,43.682,35.712,43.682,35.698,43.682z"/>
		<path d="M46.698,45.682c-0.497,0-0.928-0.37-0.991-0.876l-3.008-24.124c0-2.206-1.794-4-4-4
			c-2.708,0-3,2.797-3,4l0.999,23.958c0.023,0.552-0.405,1.019-0.957,1.041c-0.538,0.053-1.018-0.404-1.041-0.957l-1-24
			c-0.001-3.687,1.962-6.042,4.999-6.042c3.286,0,5.965,2.656,6,5.935l2.992,23.941c0.068,0.548-0.32,1.048-0.868,1.116
			C46.781,45.679,46.739,45.682,46.698,45.682z"/>
	</g>
	<path fill="#e6e6e6" d="M52.085,49.682H5.303c-1.014,0-1.974-0.46-2.609-1.25l-2.628-3.27
		c-0.155-0.193-0.018-0.48,0.23-0.48h56.773c0.247,0,0.385,0.285,0.231,0.479l-2.595,3.259
		C54.069,49.217,53.105,49.682,52.085,49.682z"/>
	<g fill="#fbd490">
		<path d="M6.825,36.119c-0.052,0-0.104-0.004-0.157-0.013c-0.545-0.086-0.918-0.598-0.831-1.144l1.325-8.396
			c0.086-0.545,0.599-0.919,1.144-0.831c0.545,0.086,0.918,0.598,0.831,1.144l-1.325,8.396C7.734,35.768,7.308,36.119,6.825,36.119z"
			/>
		<path d="M8.583,25.065c-0.053,0-0.107-0.004-0.162-0.013c-0.545-0.089-0.915-0.603-0.826-1.148l0.361-2.218
			c0.089-0.543,0.595-0.915,1.148-0.826c0.545,0.089,0.915,0.603,0.826,1.148L9.57,24.226C9.49,24.716,9.065,25.065,8.583,25.065z"/>
		<path d="M17.053,23.37c-0.044,0-0.088-0.003-0.133-0.009c-0.548-0.073-0.933-0.576-0.859-1.123l0.297-2.228
			c0.073-0.548,0.57-0.931,1.123-0.859c0.548,0.073,0.933,0.576,0.859,1.123l-0.297,2.228C17.976,23.005,17.547,23.37,17.053,23.37z"/>
		<path d="M26.458,28.608c-0.014,0-0.027,0-0.041-0.001c-0.552-0.022-0.981-0.487-0.959-1.039l0.195-4.831
			c0.021-0.552,0.487-1.022,1.039-0.959c0.552,0.022,0.981,0.487,0.959,1.039l-0.195,4.831
			C27.435,28.186,26.992,28.608,26.458,28.608z"/>
		<path d="M26.743,21.085c-0.012,0-0.022,0-0.033-0.001c-0.553-0.018-0.985-0.479-0.967-1.031l0.073-2.246
			c0.018-0.541,0.461-0.968,0.998-0.968c0.012,0,0.022,0,0.033,0.001c0.553,0.018,0.985,0.479,0.967,1.031l-0.073,2.246
			C27.723,20.658,27.28,21.085,26.743,21.085z"/>
		<path d="M48.402,24.487c-0.499,0-0.931-0.373-0.992-0.881l-0.269-2.231
			c-0.065-0.548,0.325-1.046,0.874-1.112c0.539-0.068,1.046,0.325,1.112,0.874l0.269,2.231c0.065,0.548-0.325,1.046-0.874,1.112
			C48.482,24.485,48.442,24.487,48.402,24.487z"/>
	</g>
	<path fill="#6a3311" d="M5.776,21.539c0.31-2.204,1.566-3.857,3.923-3.857c2.545,0,3.521,1.954,3.822,4.421l0.178-1.421
		c0-2.75,2.25-5,5-5s4,2.25,4,5v-2c0-2.75,3.25-5,6-5s6,2.25,6,5v2c0-2.75,1.25-5,4-5s5,2.25,5,5l0.176,1.408
		c0.302-2.467,1.279-4.408,3.824-4.408c2.357,0,3.612,1.653,3.923,3.857c0.022,0.159,0.042,0.319,0.063,0.479
		c0.004-0.112,0.014-0.223,0.014-0.336c0-7.732-10.297-14-23-14s-23,6.268-23,14c0,0.113,0.01,0.224,0.014,0.336
		C5.734,21.858,5.753,21.698,5.776,21.539z"/>
</g>
</svg>
