<?xml version="1.0" encoding="utf-8"?>
<svg version="1.1" xmlns="http://www.w3.org/2000/svg" x="0px" y="0px" viewBox="0 0 54 54" xml:space="preserve">
<g>
	<path fill="#dae7ef" d="M38.995,7.54V7.043h0.831c1.291,0,2.13-1.056,2.13-2.348V2.348c0-1.291-0.839-2.348-2.13-2.348
		H29.261h-1.087h-2.396h-1.126H14.087c-1.291,0-2.13,1.056-2.13,2.348v2.348c0,1.291,0.839,2.348,2.13,2.348h1.174V7.54
		c0,4.566-8.217,2.145-8.217,10.565v26.054c0,5.435,4.406,9.841,9.841,9.841H27h10.115c5.435,0,9.841-4.406,9.841-9.841V18.104
		C46.957,9.685,38.995,12.106,38.995,7.54z"/>
	<path fill="#f75b57" d="M25.372,19.769c-2.256-0.778-4.491-1.25-6.647-1.5C12.505,17.55,7.043,22.4,7.043,28.662v15.496
		c0,5.435,4.406,9.841,9.841,9.841H27h10.115c5.435,0,9.841-4.406,9.841-9.841V32.435c0-5.924-4.919-10.63-10.841-10.447
		c-4.911,0.152-8.529-1.26-9.728-1.804C26.055,20.035,25.717,19.888,25.372,19.769z"/>
	<g fill="#5b4b38">
		<circle cx="18" cy="28" r="4"/>
		<circle cx="38" cy="31" r="3"/>
		<circle cx="27" cy="37" r="2"/>
		<circle cx="18" cy="46" r="3"/>
		<circle cx="38" cy="45" r="2"/>
	</g>
	<path fill="#e22f37" d="M29.221,29.633c-0.15,0-0.303-0.034-0.446-0.105l-2.53-1.266c-0.494-0.247-0.694-0.848-0.447-1.342
		s0.848-0.693,1.342-0.447l2.53,1.266c0.494,0.247,0.694,0.848,0.447,1.342C29.941,29.431,29.587,29.633,29.221,29.633z"/>
	<path fill="#f96c7e" d="M35.957,40c-0.256,0-0.512-0.098-0.707-0.293l-2-2c-0.391-0.391-0.391-1.023,0-1.414
		s1.023-0.391,1.414,0l2,2c0.391,0.391,0.391,1.023,0,1.414C36.468,39.902,36.212,40,35.957,40z"/>
	<path fill="#ed3f32" d="M26.615,48.447c-0.419,0-0.809-0.265-0.949-0.684c-0.175-0.524,0.108-1.091,0.632-1.265l2.684-0.895
		c0.525-0.176,1.09,0.108,1.265,0.632c0.175,0.524-0.108,1.091-0.632,1.265l-2.684,0.895C26.826,48.431,26.719,48.447,26.615,48.447
		z"/>
	<path fill="#ed3f32" d="M13.957,39c-0.256,0-0.512-0.098-0.707-0.293c-0.391-0.391-0.391-1.023,0-1.414l2-2
		c0.391-0.391,1.023-0.391,1.414,0s0.391,1.023,0,1.414l-2,2C14.468,38.902,14.212,39,13.957,39z"/>
	<path fill="#ffffff" d="M41.956,20c-0.466,0-0.883-0.327-0.979-0.802c-1.11-5.495-8.176-7.208-8.248-7.225
		c-0.538-0.126-0.872-0.664-0.746-1.201c0.126-0.538,0.664-0.868,1.201-0.746c0.342,0.08,8.391,2.036,9.752,8.775
		c0.109,0.542-0.241,1.069-0.782,1.179C42.088,19.994,42.021,20,41.956,20z"/>
	<path fill="#e6e6e6" d="M25.778,0l3.483,0l10.565,0c1.291,0,2.13,1.057,2.13,2.348v2.348c0,1.291-0.839,2.348-2.13,2.348
		H29.261h-3.522h2.396h-3.483H14.087c-1.291,0-2.13-1.057-2.13-2.348V2.348c0-1.291,0.839-2.348,2.13-2.348h10.565h3.522"/>
	<g fill="#d2d5d7">
		<path d="M35.965,7.043h1.982C37.948,7.028,37.957,7.015,37.957,7V0h-2v7
			C35.957,7.015,35.965,7.028,35.965,7.043z"/>
		<path d="M31.965,7.043h1.982C33.948,7.028,33.957,7.015,33.957,7V0h-2v7
			C31.957,7.015,31.965,7.028,31.965,7.043z"/>
		<path d="M27.965,7.043h0.17h1.126h0.687C29.948,7.028,29.957,7.015,29.957,7V0h-0.696h-1.087h-0.217v7
			C27.957,7.015,27.965,7.028,27.965,7.043z"/>
		<path d="M23.965,7.043h0.687h1.087h0.209C25.948,7.028,25.957,7.015,25.957,7V0h-0.179h-1.126h-0.696v7
			C23.957,7.015,23.965,7.028,23.965,7.043z"/>
		<path d="M19.965,7.043h1.982C21.948,7.028,21.957,7.015,21.957,7V0h-2v7
			C19.957,7.015,19.965,7.028,19.965,7.043z"/>
		<path d="M15.965,7.043h1.982C17.948,7.028,17.957,7.015,17.957,7V0h-2v7
			C15.957,7.015,15.965,7.028,15.965,7.043z"/>
	</g>
</g>
</svg>
