<?xml version="1.0" encoding="utf-8"?>
<svg version="1.1" xmlns="http://www.w3.org/2000/svg" x="0px" y="0px" viewBox="0 0 58 58" xml:space="preserve">
<g>
	<polygon fill="#c6c6c6" points="26,57 12,51 12,18 26,23"/>
	<polygon fill="#e6e6e6" points="45,52 26,57 26,23 45,18"/>
	<polygon fill="#e2e2e2" points="38,4 19,8 19,4 38,0"/>
	<polygon fill="#d1d1d1" points="26,23 12,18 19,8 19,8"/>
	<polygon fill="#eaeaea" points="45,18 26,23 19,8 38,4"/>
	<polygon fill="#3dabef" points="45,37 26,52 26,37 45,21"/>
	<polygon fill="#2b9dd6" points="12,46 26,52 26,37 12,31"/>
	<path fill="#ffffff" d="M34.215,16.875L34.215,16.875c-2.217,0.58-2.956-1.423-3.305-2.753l0,0
		c-0.348-1.33-0.684-3.439,1.533-4.019l0,0c2.217-0.58,2.956,1.423,3.304,2.753v0C36.095,14.186,36.432,16.295,34.215,16.875z"/>
	<g fill="ededed">
		<polygon points="34,4.842 36,4.421 36,0.421 34,0.842"/>
		<polygon points="30,5.684 32,5.263 32,1.263 30,1.684"/>
		<polygon points="26,6.526 28,6.105 28,2.105 26,2.526"/>
		<polygon points="22,7.368 24,6.947 24,2.947 22,3.368"/>
	</g>
</g>
</svg>
